<svg viewBox="0 0 147 22" fill="none" xmlns="http://www.w3.org/2000/svg"><path fill-rule="evenodd" clip-rule="evenodd" d="M3.85 18.65a5.23 5.23 0 0 1 0-7.3l8.31-8.52a5.23 5.23 0 0 1 7.48 0l.5.52a5.23 5.23 0 0 1 0 7.3l-8.3 8.52a5.23 5.23 0 0 1-7.49 0l-.5-.52Z" fill="#12D2AC"/><path fill-rule="evenodd" clip-rule="evenodd" d="M11.91 3.1a5.59 5.59 0 0 1 8 0l7.8 8a5.59 5.59 0 0 1-7.99 7.8l-7.8-8a5.59 5.59 0 0 1 0-7.8Z" fill="#307AF2"/><path fill-rule="evenodd" clip-rule="evenodd" d="M12.16 2.83a5.23 5.23 0 0 1 7.48 0L23.71 7l-7.8 8-7.82-8 4.07-4.17Z" fill="#0057FE"/><circle cx="82.41" cy="15.23" fill="#1A2234" r="1.85"/><path fill-rule="evenodd" clip-rule="evenodd" d="M90.3 5.86c1.42 0 2.43.56 3.13 1.4V.95h2.86V16.8h-2.8v-1.18a3.91 3.91 0 0 1-3.2 1.46c-2.93 0-5.16-2.41-5.16-5.61s2.23-5.61 5.16-5.61ZM49.21 16.8V6.14h-2.8v1.18a3.9 3.9 0 0 0-3.2-1.46c-2.93 0-5.16 2.4-5.16 5.6 0 3.2 2.23 5.62 5.16 5.62 1.47 0 2.5-.6 3.2-1.46v1.18h2.8ZM41 11.47c0-1.63 1.07-2.94 2.75-2.94 1.64 0 2.75 1.25 2.75 2.94 0 1.68-1.11 2.93-2.75 2.93-1.68 0-2.75-1.3-2.75-2.93Zm15.92-5.61c.61 0 1.1.08 1.5.23l-.43 2.85a4.66 4.66 0 0 0-1.74-.35C54.92 8.6 54 9.41 54 11v5.81h-2.87V6.14h2.79v1.17c.67-1 1.69-1.45 3-1.45Zm11.27 2a5.2 5.2 0 0 0-4.26-2 5.41 5.41 0 0 0-5.68 5.6 5.4 5.4 0 0 0 5.68 5.62c1.78 0 3.27-.72 4.27-2l-2.04-1.76c-.6.66-1.4 1.08-2.32 1.08-1.49 0-2.66-1.15-2.66-2.93 0-1.78 1.18-2.94 2.67-2.94.93 0 1.63.37 2.28 1.07l2.06-1.73Zm5.86-2c3.32 0 5.77 2.4 5.77 5.6 0 3.22-2.45 5.62-5.77 5.62a5.53 5.53 0 0 1-5.76-5.61 5.53 5.53 0 0 1 5.76-5.61Zm-2.83 5.6c0-1.72 1.2-2.93 2.83-2.93 1.61 0 2.83 1.2 2.83 2.94 0 1.72-1.22 2.93-2.83 2.93-1.62 0-2.83-1.2-2.83-2.93Zm16.85 0c0-1.62 1.07-2.93 2.75-2.93 1.64 0 2.75 1.25 2.75 2.94 0 1.68-1.11 2.93-2.75 2.93-1.68 0-2.75-1.3-2.75-2.93Zm14.86-5.6c3.07 0 5.17 2.27 5.18 5.6 0 .32-.02.72-.05.96h-7.56c.3 1.54 1.39 2.21 2.74 2.21.92 0 1.92-.37 2.7-1.02l1.68 1.85a6.47 6.47 0 0 1-4.55 1.62c-3.26 0-5.53-2.23-5.53-5.58 0-3.36 2.2-5.64 5.4-5.64Zm-2.42 4.6c.25-1.32 1.05-2.13 2.4-2.13 1.23 0 2.06.77 2.32 2.13h-4.72Zm17.38-3.58-.97 2.23a8.59 8.59 0 0 0-3.4-.87c-1.08 0-1.63.39-1.63.97 0 .62.77.77 1.73.91l.95.15c2.3.35 3.6 1.38 3.6 3.19 0 2.2-1.8 3.62-4.9 3.62-1.45 0-3.35-.28-4.74-1.26l1.13-2.18c.92.6 2.03 1.05 3.63 1.05 1.33 0 1.97-.38 1.97-1 0-.52-.54-.8-1.77-.98l-.87-.12c-2.46-.34-3.68-1.42-3.68-3.24 0-2.18 1.7-3.48 4.5-3.48 1.7 0 3.03.32 4.45 1Zm4.31 9.92V6.14h-2.87V16.8h2.87ZM120.75.96c1.03 0 1.84.81 1.84 1.85a1.8 1.8 0 0 1-1.84 1.82 1.8 1.8 0 0 1-1.83-1.82c0-1.04.8-1.85 1.83-1.85Zm10.91 6.37a4.04 4.04 0 0 0-3.3-1.47c-2.6 0-4.9 2.16-4.9 5.44 0 3.27 2.3 5.43 4.9 5.43 1.48 0 2.55-.55 3.28-1.44v.75c0 1.84-1.25 2.83-3.03 2.83a6.3 6.3 0 0 1-3.53-1.09l-1.02 2.34a8.42 8.42 0 0 0 4.67 1.29c3.52 0 5.75-2.07 5.75-5.49V6.14h-2.82v1.19ZM129.1 8.5c-1.64 0-2.69 1.25-2.69 2.8 0 1.54 1.05 2.8 2.69 2.8 1.6 0 2.67-1.21 2.67-2.8 0-1.6-1.08-2.8-2.67-2.8ZM146.47 10a3.97 3.97 0 0 0-4.15-4.15c-1.2 0-2.37.4-3.13 1.54V6.14h-2.8V16.8h2.87v-5.84c0-1.6 1.03-2.4 2.26-2.4 1.3 0 2.08.84 2.08 2.38v5.86h2.87v-6.79Z" fill="#1A2234"/></svg>